<svg xmlns="http://www.w3.org/2000/svg" width="48" height="48" viewBox="0 0 48 48">
  <defs>
    <style>
      .a, .c {
        fill: none;
      }

      .a, .b {
        stroke: #000;
      }

      .a, .b, .c {
        stroke-linecap: round;
        stroke-linejoin: round;
        stroke-width: 2px;
      }

      .c {
        stroke: #231815;
      }

      .d {
        fill: #231815;
      }
    </style>
  </defs>
  <title>1084_pc_h</title>
  <g>
    <g>
      <path class="a" d="M15.71,38.46H32.29a3,3,0,0,1,3,3V42a0,0,0,0,1,0,0H12.71a0,0,0,0,1,0,0v-.54A3,3,0,0,1,15.71,38.46Z"/>
      <rect class="a" x="5.5" y="6" width="37" height="28.23" rx="3"/>
      <line class="a" x1="29.05" y1="34.23" x2="29.76" y2="38.46"/>
      <line class="a" x1="18.24" y1="38.46" x2="18.95" y2="34.23"/>
      <line class="b" x1="5.5" y1="28.93" x2="42.5" y2="28.93"/>
    </g>
    <g>
      <line class="c" x1="14.78" y1="20.67" x2="33.22" y2="20.67"/>
      <line class="c" x1="14.78" y1="15.68" x2="25.53" y2="15.68"/>
      <circle class="d" cx="28.86" cy="15.68" r="1"/>
    </g>
  </g>
</svg>
